<svg width="21" height="34" viewBox="0 0 21 34" fill="none" xmlns="http://www.w3.org/2000/svg">
<path d="M16.6 17.73C18.2121 16.0918 20.13 13.499 20.13 10.4406C20.1447 7.71533 19.0884 5.09332 17.1887 3.13929C16.2795 2.19232 15.1905 1.43616 13.9856 0.915071C12.7807 0.39398 11.4839 0.118414 10.1712 0.104492H10.0595C8.75173 0.122307 7.46055 0.399759 6.26092 0.920734C5.0613 1.44171 3.97713 2.19583 3.07137 3.13929C1.17307 5.09183 0.116887 7.7114 0.129972 10.4346C0.129972 13.493 2.02997 16.0859 3.62417 17.73C4.96961 19.3211 5.69452 21.3449 5.66527 23.4284L5.67097 24.5H14.6183V23.4461C14.5675 21.364 15.2713 19.3338 16.6 17.73ZM12.63 33.5H7.62997V32.5H12.63V33.5ZM14.63 30.5H5.62997V29.5H14.63V30.5ZM14.63 27.5H5.62997V26.5H14.63V27.5Z" fill="#1D1D1F"/>
</svg>
