<svg width="33" height="33" viewBox="0 0 33 33" fill="none" xmlns="http://www.w3.org/2000/svg">
<path d="M32.645 10.508C32.645 10.126 32.645 9.74399 32.645 9.36199C32.645 9.03999 32.639 8.71799 32.631 8.39699C32.6221 7.69334 32.5602 6.99136 32.446 6.29699C32.3274 5.60129 32.1057 4.92719 31.788 4.29699C31.1422 3.0315 30.1118 2.00326 28.845 1.35999C28.2148 1.0424 27.5407 0.82062 26.845 0.70199C26.1506 0.587757 25.4487 0.525916 24.745 0.516991C24.423 0.507991 24.101 0.503991 23.779 0.502991C23.397 0.502991 23.015 0.502991 22.632 0.502991H10.653C10.271 0.502991 9.88901 0.502991 9.50701 0.502991C9.18501 0.502991 8.86301 0.508991 8.54201 0.516991C7.83836 0.525916 7.13638 0.587757 6.44201 0.70199C5.74631 0.820562 5.07221 1.04234 4.44201 1.35999C3.17697 2.00506 2.14879 3.03429 1.50501 4.29999C1.18742 4.93022 0.96564 5.6043 0.84701 6.29999C0.732773 6.99436 0.670932 7.69634 0.66201 8.39999C0.65301 8.72199 0.64901 9.04399 0.64801 9.36599C0.64801 9.74799 0.64801 10.13 0.64801 10.513V23.693C0.64801 23.993 0.65401 24.299 0.66201 24.603C0.670421 25.3056 0.731593 26.0066 0.84501 26.7C0.963582 27.3957 1.18536 28.0698 1.50301 28.7C2.14861 29.9653 3.17857 30.9935 4.44501 31.637C5.07527 31.9545 5.74935 32.1763 6.44501 32.295C7.13938 32.4092 7.84136 32.4711 8.54501 32.48C8.86701 32.489 9.18901 32.493 9.51101 32.494C9.89301 32.494 10.275 32.494 10.658 32.494H22.642C23.024 32.494 23.406 32.494 23.788 32.494C24.11 32.494 24.432 32.488 24.753 32.48C25.4567 32.4711 26.1586 32.4092 26.853 32.295C27.5487 32.1764 28.2228 31.9546 28.853 31.637C30.1157 30.9918 31.142 29.9638 31.785 28.7C32.1025 28.0697 32.3243 27.3957 32.443 26.7C32.5572 26.0056 32.6191 25.3036 32.628 24.6C32.637 24.278 32.641 23.956 32.642 23.634C32.642 23.252 32.642 22.87 32.642 22.487L32.645 10.508ZM10.504 10.882C10.9359 10.38 11.5449 10.0641 12.204 9.99999C12.2512 10.6705 12.0361 11.3331 11.604 11.848C11.3989 12.1059 11.1372 12.3132 10.8391 12.4536C10.5409 12.5941 10.2145 12.664 9.88501 12.658C9.86489 12.3357 9.90927 12.0126 10.0156 11.7076C10.1218 11.4027 10.2879 11.122 10.504 10.882ZM13.816 20.1C13.334 20.809 12.838 21.5 12.045 21.518C11.28 21.532 11.025 21.064 10.145 21.064C9.26501 21.064 8.98301 21.504 8.26001 21.532C7.49501 21.56 6.91401 20.78 6.43301 20.072C5.44101 18.64 4.69001 16.032 5.71001 14.272C5.94609 13.8443 6.28998 13.4858 6.70749 13.2321C7.12501 12.9785 7.60163 12.8384 8.09001 12.826C8.84101 12.812 9.53501 13.326 9.99001 13.326C10.445 13.326 11.251 12.726 12.2 12.787C12.6164 12.8035 13.0234 12.9157 13.3894 13.1147C13.7555 13.3138 14.0708 13.5945 14.311 13.935C13.9347 14.167 13.623 14.4902 13.405 14.8749C13.187 15.2595 13.0697 15.6929 13.064 16.135C13.0679 16.6324 13.2157 17.118 13.4898 17.5331C13.7638 17.9482 14.1522 18.275 14.608 18.474C14.4236 19.0513 14.1568 19.5989 13.816 20.1ZM19.795 14.638H18.245V19.167C18.245 19.867 18.553 20.191 19.231 20.191C19.4166 20.188 19.6018 20.1749 19.786 20.152V21.431C19.4829 21.4803 19.1761 21.5034 18.869 21.5C17.269 21.5 16.645 20.886 16.645 19.33V14.639H15.459V13.368H16.645V11.442H18.245V13.368H19.795V14.638ZM25.214 21.438H23.514L20.654 13.368H22.345L24.351 19.853H24.389L26.395 13.368H28.057L25.214 21.438Z" fill="#1D1D1F"/>
</svg>
