<svg width="37" height="33" viewBox="0 0 37 33" fill="none" xmlns="http://www.w3.org/2000/svg">
<path d="M19.5588 14.05C19.3348 13.8669 19.0544 13.7668 18.765 13.7666C18.4757 13.7664 18.1952 13.8662 17.9709 14.049L17.26 14.632L15.26 16.272V21.46C15.2603 21.7409 15.3721 22.0102 15.5709 22.2087C15.7697 22.4072 16.0391 22.5186 16.32 22.5184H21.2C21.4809 22.5186 21.7504 22.4072 21.9492 22.2087C22.1479 22.0102 22.2598 21.7409 22.26 21.46V16.2642L20.26 14.6242L19.5588 14.05ZM20.26 20.5223H17.26V17.2157L18.7649 15.9819L20.26 17.2079V20.5223ZM20.052 7.44841C19.6916 7.14175 19.2339 6.97326 18.7607 6.97308C18.2875 6.9729 17.8296 7.14103 17.469 7.44741L13.8728 10.4837L10.26 13.5338V25.4558C10.2602 25.7182 10.3122 25.978 10.4128 26.2204C10.5134 26.4627 10.6608 26.6828 10.8465 26.8682C11.0322 27.0536 11.2527 27.2006 11.4952 27.3008C11.7377 27.4009 11.9976 27.4524 12.26 27.4521H25.26C25.5224 27.4524 25.7823 27.4009 26.0248 27.3008C26.2674 27.2006 26.4878 27.0536 26.6735 26.8682C26.8592 26.6828 27.0066 26.4627 27.1073 26.2204C27.2079 25.978 27.2598 25.7182 27.26 25.4558V13.5339L23.6473 10.4839L20.052 7.44841ZM25.26 25.4558H12.26V14.46L14.605 12.48L15.5137 11.7129C15.5897 11.6226 15.6804 11.546 15.7821 11.4862L16.97 10.4837L18.76 8.97191L20.5505 10.4837L21.7379 11.4861C21.8396 11.5459 21.9304 11.6225 22.0063 11.7128L22.915 12.4799L25.26 14.46V25.4558ZM36.3956 14.2619L32.26 10.8612V5.05121C32.2599 4.95281 32.2405 4.8554 32.2027 4.76452C32.165 4.67365 32.1097 4.5911 32.0401 4.52158C31.9704 4.45207 31.8878 4.39695 31.7968 4.35938C31.7059 4.32181 31.6084 4.30252 31.51 4.30261H29.51C29.3125 4.30637 29.1241 4.3864 28.9843 4.52595C28.8445 4.66549 28.7641 4.85372 28.76 5.05121V7.98341L27.0149 6.54841L24.5872 4.55211L20.35 1.06771C19.9015 0.700512 19.3397 0.499878 18.76 0.499878C18.1803 0.499878 17.6185 0.700512 17.17 1.06771L12.9327 4.55191L10.505 6.54821L7.26002 9.21661L5.26002 10.8612L1.12442 14.2619C0.920055 14.4305 0.791038 14.6734 0.765749 14.9371C0.74046 15.2008 0.82097 15.4638 0.989568 15.6682C1.15817 15.8725 1.40104 16.0015 1.66476 16.0268C1.92849 16.0521 2.19146 15.9716 2.39582 15.803L5.26002 13.4477V29.256C5.26041 29.6824 5.34479 30.1046 5.50833 30.4984C5.67187 30.8922 5.91137 31.2499 6.21316 31.5511C6.51495 31.8523 6.87312 32.0912 7.26722 32.254C7.66131 32.4168 8.08362 32.5004 8.51002 32.5H29.01C29.4364 32.5004 29.8587 32.4168 30.2528 32.254C30.6469 32.0912 31.0051 31.8523 31.3069 31.5511C31.6087 31.2499 31.8482 30.8922 32.0117 30.4984C32.1752 30.1046 32.2596 29.6824 32.26 29.256V13.4477L35.1243 15.803C35.2255 15.8865 35.3421 15.9492 35.4676 15.9876C35.593 16.026 35.7248 16.0394 35.8554 16.0268C35.986 16.0143 36.1128 15.9762 36.2286 15.9147C36.3445 15.8531 36.4471 15.7694 36.5306 15.6682C36.614 15.567 36.6768 15.4503 36.7152 15.3249C36.7536 15.1995 36.7669 15.0677 36.7544 14.9371C36.7419 14.8065 36.7037 14.6797 36.6422 14.5638C36.5807 14.448 36.4968 14.3454 36.3956 14.2619ZM30.26 29.256C30.2594 29.5871 30.1274 29.9045 29.8931 30.1384C29.6587 30.3723 29.3411 30.5037 29.01 30.5037H8.51002C8.1789 30.5037 7.8613 30.3723 7.62695 30.1384C7.39259 29.9045 7.26063 29.5871 7.26002 29.256V11.8032L13.6507 6.54821L16.0784 4.55191L18.4415 2.60881C18.5313 2.53529 18.6438 2.49512 18.7599 2.49512C18.876 2.49512 18.9885 2.53529 19.0783 2.60881L21.4414 4.55191L23.8691 6.54821L30.26 11.8032V29.256Z" fill="#1D1D1F"/>
</svg>
