<svg width="27" height="33" viewBox="0 0 27 33" fill="none" xmlns="http://www.w3.org/2000/svg">
<path d="M23.3473 1.72702C20.3665 0.105692 13.9819 0.256747 13.9819 0.256747H13.4683C13.4683 0.256747 7.08366 0.0855511 4.10283 1.72702C3.0881 2.39519 2.26418 3.31531 1.71167 4.39738C1.15917 5.47944 0.896993 6.68639 0.950799 7.90016V24.3451C0.950799 24.6371 0.97094 24.9493 1.01122 25.2413C1.10186 26.7519 1.67587 28.2222 2.64262 29.3903C5.34148 32.3913 9.94364 32.4316 13.71 32.4719C17.4863 32.4417 22.0784 32.3812 24.7773 29.3903C25.7468 28.215 26.318 26.7622 26.4087 25.2413C26.449 24.9493 26.4691 24.6472 26.4691 24.3451V7.90016C26.5274 6.68571 26.2673 5.47712 25.7143 4.39426C25.1614 3.31141 24.335 2.39192 23.3171 1.72702H23.3372H23.3473ZM13.7301 3.24765H13.4783C9.86308 3.22751 6.96281 2.77434 6.96281 2.23054C6.96281 1.68674 9.86308 1.23357 13.4783 1.21343H13.7301C17.4763 1.21343 20.4974 1.67667 20.4974 2.24061C20.4974 2.80455 17.4763 3.26779 13.7301 3.26779V3.24765ZM18.9768 2.22047C18.9768 2.52258 16.6203 2.77434 13.7301 2.77434C10.8399 2.77434 8.48344 2.53265 8.48344 2.22047C8.48344 1.90829 10.8399 1.6666 13.7301 1.6666C16.6203 1.6666 18.9768 1.90829 18.9768 2.22047Z" fill="#1D1D1F"/>
</svg>
