<svg width="22" height="20" viewBox="0 0 22 20" fill="none" xmlns="http://www.w3.org/2000/svg">
<path d="M20.4944 5.7673C19.8774 3.85398 18.6921 2.17405 17.0964 0.95122C16.636 0.62695 16.0914 0.443193 15.5286 0.422221C14.3773 0.303861 13.2222 0.19409 12.0662 0.15594C11.574 0.1397 11.0813 0.131957 10.5881 0.13271C10.095 0.13267 9.60231 0.140413 9.1099 0.15594C7.9539 0.19409 6.79883 0.303861 5.64749 0.422221C5.08473 0.443193 4.54013 0.62695 4.07971 0.95122C2.50492 2.19401 1.32451 3.86699 0.681607 5.7673C0.228226 7.08228 0.0468448 8.47569 0.148477 9.86291C0.272027 11.7721 0.918003 13.6106 2.01581 15.1774C2.95424 16.5535 4.21239 17.6814 5.6824 18.4644C6.13494 18.7279 6.61466 18.9416 7.11318 19.1018C8.24831 19.3901 9.41711 19.524 10.588 19.5C11.7589 19.524 12.9277 19.39 14.0629 19.1018C14.5614 18.9415 15.0411 18.7278 15.4936 18.4644C16.9636 17.6813 18.2218 16.5534 19.1602 15.1774C20.258 13.6105 20.904 11.772 21.0275 9.86287C21.1436 8.47529 20.9618 7.07893 20.4944 5.7673ZM10.588 2.1811C7.52562 2.1811 5.04302 1.80345 5.04302 1.3376C5.04302 0.871751 7.52558 0.494111 10.588 0.494111C13.6505 0.494111 16.1329 0.871751 16.1329 1.3376C16.1329 1.80345 13.6504 2.1811 10.588 2.1811Z" fill="#1D1D1F"/>
<path d="M10.588 1.76415C12.8273 1.76415 14.6427 1.57318 14.6427 1.33761C14.6427 1.10204 12.8273 0.911072 10.588 0.911072C8.34868 0.911072 6.53334 1.10204 6.53334 1.33761C6.53334 1.57318 8.34868 1.76415 10.588 1.76415Z" fill="#1D1D1F"/>
</svg>
